PathFileType	4	(X/Y/Z)	 s08c0103.trc
DataRate	CameraRate	NumFrames	NumMarkers	Units	OrigDataRate	OrigDataStartFrame	OrigNumFrames
200	200	4	50	mm	200	1751	2000
Frame#	Time	racr			lacr			c7			jug			rlel			rdr			llel			ldr			s2			lic			ric			lasi			rasi			rpsi			lpsi			rgt			lgt			rth1			rth2			rth3			rth4			rlfc			rmfc			rsh1			rsh2			rsh3			rsh4			rlmal			rmmal			rcal			rtoe			rmt5			lth1			lth2			lth4			lth3			llfc			lmfc			llmal			lmmal			lcal			lmt5			lsh1			lsh2			lsh3			lsh4			ltoe			SBIKE			LBIKE			RBIKE			
		X1	Y1	Z1	X2	Y2	Z2	X3	Y3	Z3	X4	Y4	Z4	X5	Y5	Z5	X6	Y6	Z6	X7	Y7	Z7	X8	Y8	Z8	X9	Y9	Z9	X10	Y10	Z10	X11	Y11	Z11	X12	Y12	Z12	X13	Y13	Z13	X14	Y14	Z14	X15	Y15	Z15	X16	Y16	Z16	X17	Y17	Z17	X18	Y18	Z18	X19	Y19	Z19	X20	Y20	Z20	X21	Y21	Z21	X22	Y22	Z22	X23	Y23	Z23	X24	Y24	Z24	X25	Y25	Z25	X26	Y26	Z26	X27	Y27	Z27	X28	Y28	Z28	X29	Y29	Z29	X30	Y30	Z30	X31	Y31	Z31	X32	Y32	Z32	X33	Y33	Z33	X34	Y34	Z34	X35	Y35	Z35	X36	Y36	Z36	X37	Y37	Z37	X38	Y38	Z38	X39	Y39	Z39	X40	Y40	Z40	X41	Y41	Z41	X42	Y42	Z42	X43	Y43	Z43	X44	Y44	Z44	X45	Y45	Z45	X46	Y46	Z46	X47	Y47	Z47	X48	Y48	Z48	X49	Y49	Z49	X50	Y50	Z50	
1751	8.7550	571.359555	1356.904494	-101.469611	521.369913	1383.466606	-404.421791	507.339960	1440.943342	-247.573383	492.674469	1280.581857	-250.975043	597.262038	1113.579605	30.247079	779.144395	889.263216	-50.591733	564.392048	1114.555493	-482.374121	779.772915	922.617684	-414.292918	-49.848285	1236.209629	-186.354879	97.005136	1240.059127	-338.792830	128.740032	1221.415044	-29.945870	134.859736	1196.827997	-301.651832	140.287691	1160.740925	-65.911422	-10.100210	1270.911078	-131.236927	-19.973097	1285.165067	-221.762975	32.119404	1104.970322	-8.090237	63.017505	1155.108752	-380.829720	141.164609	965.873464	-10.882326	208.768213	908.078762	-15.016805	237.337165	826.501616	-25.352555	238.103662	928.693075	-23.122424	292.378420	724.035579	-42.873471	275.025124	719.928759	-151.554974	203.617141	625.723492	-16.231228	180.105046	542.138719	-40.181914	119.255569	481.806337	-48.226748	207.282440	532.532165	-69.712686	50.900635	384.414197	-59.439152	77.439128	395.787945	-146.693223	-25.033632	401.493285	-109.069744	213.884796	220.152019	-98.899676	120.695001	248.385264	-35.401501	160.412083	1067.218199	-392.611303	241.661493	1034.624351	-391.043378	262.620133	1061.317039	-377.237278	296.653877	965.041875	-397.764638	391.212923	868.843557	-389.805697	387.531531	831.888971	-271.340273	289.801200	449.988286	-395.359473	315.389727	468.977810	-309.301425	221.493464	415.649111	-359.210464	433.524109	381.428744	-418.721935	356.028366	738.802455	-407.476595	357.224360	653.050380	-394.385401	318.144943	574.818318	-399.439139	380.647937	650.223298	-362.567844	510.584099	421.168930	-349.611666	-205.737193	918.312339	-224.576565	-6.640463	83.443337	-425.692470	-9.116799	80.055301	-27.447759	
1752	8.7600	571.650926	1355.484745	-100.102606	522.909597	1381.708490	-403.514459	508.493601	1439.035412	-247.013303	493.597357	1278.673611	-249.653725	598.756647	1111.967493	30.035214	780.637765	888.578716	-50.490295	563.632765	1112.108623	-482.157036	780.178895	921.728510	-413.955971	-49.295999	1233.999115	-187.105193	98.141442	1237.588535	-339.937707	128.909362	1220.066778	-31.150576	135.269509	1195.105644	-302.683459	140.575168	1159.369299	-67.008871	-9.932721	1268.938601	-132.693710	-19.341287	1283.085611	-223.030267	33.100750	1104.042918	-7.913730	62.336017	1151.131931	-381.652727	144.251570	967.378958	-11.364390	212.955568	910.701654	-15.191834	243.002146	829.939087	-24.524926	241.891691	932.013926	-23.846294	299.134007	728.302339	-42.003911	281.450429	724.405034	-150.156752	207.980546	632.015365	-16.110722	181.347431	548.517817	-41.856401	120.501356	490.099814	-48.165775	209.683987	538.795991	-69.369015	49.842324	395.190063	-59.279257	76.550083	405.876669	-146.695552	-26.002987	413.294316	-109.152779	210.497913	228.852160	-98.840442	117.604363	258.450731	-35.328522	158.883733	1061.104530	-393.397353	239.454425	1026.990669	-391.861432	261.156331	1053.632251	-378.930392	293.066648	956.289797	-397.992626	377.960724	855.179108	-381.109235	382.765045	822.725117	-271.600859	292.812913	439.222503	-396.423103	318.092382	458.237254	-310.074881	224.958069	404.397150	-359.867580	437.238186	370.703694	-418.637255	353.301671	728.989564	-407.914826	356.376536	643.239262	-394.732535	318.891237	564.208518	-399.954677	379.544214	640.976048	-362.767911	513.998980	410.834994	-349.425565	-203.254279	918.083216	-221.808452	-6.481217	83.473590	-425.638344	-9.041584	80.066752	-27.394336	
1753	8.7650	571.901400	1353.833079	-98.868081	525.165780	1380.545945	-404.742937	509.822984	1437.636048	-246.612102	494.765731	1277.281196	-249.217746	600.734151	1110.432336	30.223848	781.964697	888.029299	-50.435465	563.118731	1109.884540	-482.261620	780.596155	920.851175	-413.629598	-48.484716	1232.257591	-187.849645	99.809704	1235.242947	-341.682098	129.135162	1218.816937	-32.489686	135.803236	1193.166440	-303.827953	140.954730	1158.072076	-68.273602	-9.701964	1267.288136	-133.688719	-18.610709	1281.119814	-224.351177	34.404746	1103.025724	-7.809195	61.767450	1146.823218	-382.605553	147.436898	968.864752	-11.286716	217.282555	913.657746	-15.118882	248.877179	833.294009	-23.809612	245.669973	935.358514	-24.541999	306.062034	732.773856	-41.139156	285.870686	730.502781	-153.129305	212.741597	638.520401	-15.716841	184.393154	555.500417	-41.323210	122.082782	498.696059	-48.027935	212.476159	545.342321	-68.962025	49.271269	406.041085	-59.377841	75.626086	416.280514	-147.008005	-26.268189	425.357021	-109.135227	207.720034	237.832448	-98.721783	115.304052	268.511052	-35.301573	157.329283	1054.456461	-394.183696	237.198594	1018.940651	-392.958196	259.299746	1045.283722	-379.932826	289.505220	947.094113	-398.104985	372.147837	844.241509	-378.340775	377.746196	813.073603	-272.133041	295.404919	428.052426	-397.066846	319.577738	446.587050	-312.768586	227.841998	393.362903	-360.470317	440.315478	359.854351	-418.574406	350.649091	718.460880	-407.821893	355.457854	632.959043	-394.871327	319.652831	553.229481	-400.193413	378.336233	631.281645	-362.945960	516.952857	400.164072	-349.238742	-203.153839	918.058568	-221.926219	-6.351796	83.439993	-425.607405	-8.948802	80.090205	-27.348339	
1754	8.7700	572.212133	1351.978177	-97.385362	526.197067	1377.911641	-401.478736	510.948246	1435.942132	-245.848148	494.245103	1275.731209	-247.624030	601.435795	1108.661624	30.492312	783.307984	887.414204	-50.349259	562.748017	1107.803352	-482.466263	780.945361	919.763052	-413.153328	-47.602079	1230.345377	-188.704734	101.565265	1232.758384	-343.466336	129.519810	1217.383362	-33.798862	136.464583	1191.007712	-305.088410	141.540063	1157.029280	-69.719755	-9.459021	1265.618403	-134.879338	-17.626690	1278.823819	-225.871489	35.896032	1102.065272	-7.793964	61.460422	1142.085548	-383.581956	150.810356	970.074256	-11.592837	221.687338	916.576588	-14.941128	254.917235	836.719926	-23.111649	249.525317	938.845614	-25.169239	313.199043	737.725685	-40.414890	293.102861	734.828958	-152.182082	217.795889	645.309594	-15.267596	189.210029	563.324194	-38.954599	124.188198	507.591859	-47.732469	215.243557	552.345059	-68.073005	49.405616	416.987633	-59.325843	76.094363	426.690291	-146.826265	-25.759951	437.529911	-108.853269	205.614823	246.907004	-98.695213	113.589867	278.787962	-35.183590	155.771461	1047.312882	-395.041790	234.978721	1010.545793	-394.088840	257.661952	1036.623411	-381.486308	285.881455	937.692763	-398.354333	367.530997	834.368044	-378.494504	372.540535	803.064018	-272.607602	297.475302	416.897523	-397.597815	322.239619	436.810717	-311.292336	230.110382	382.466534	-360.901099	442.709605	348.754715	-418.465754	347.816319	708.160433	-408.511141	354.457463	622.722382	-395.506913	319.985888	542.397601	-400.516507	376.783379	621.239528	-362.743289	519.249130	389.230033	-349.046242	-203.054423	918.119516	-221.890338	-6.246852	83.468205	-425.635753	-8.902594	80.084650	-27.365060	
